<svg width="18" height="18" viewBox="0 0 18 18" fill="none" xmlns="http://www.w3.org/2000/svg">
<g id="Star_light">
<path id="Star 1" d="M7.60784 4.97068C8.19779 3.49994 8.49276 2.76456 9.00001 2.76456C9.50726 2.76456 9.80223 3.49994 10.3922 4.97069L10.4197 5.03917C10.753 5.87007 10.9196 6.28552 11.2592 6.53804C11.5989 6.79056 12.0447 6.83048 12.9364 6.91034L13.0976 6.92478C14.557 7.05548 15.2866 7.12083 15.4428 7.58506C15.5989 8.0493 15.057 8.54231 13.9732 9.52832L13.6115 9.85741C13.0629 10.3565 12.7886 10.6061 12.6607 10.9332C12.6369 10.9942 12.6171 11.0567 12.6014 11.1203C12.5173 11.4613 12.5977 11.8234 12.7583 12.5475L12.8083 12.7729C13.1036 14.1036 13.2512 14.769 12.9935 15.056C12.8971 15.1633 12.7719 15.2405 12.6329 15.2784C12.2607 15.38 11.7324 14.9494 10.6757 14.0884C9.98178 13.5229 9.63485 13.2402 9.23652 13.1766C9.07984 13.1516 8.92018 13.1516 8.7635 13.1766C8.36517 13.2402 8.01824 13.5229 7.32436 14.0884C6.26764 14.9494 5.73928 15.38 5.36713 15.2784C5.22807 15.2405 5.10289 15.1633 5.00657 15.056C4.74881 14.769 4.89644 14.1036 5.19169 12.7729L5.2417 12.5475C5.40236 11.8234 5.48269 11.4613 5.39864 11.1203C5.38297 11.0567 5.36314 10.9942 5.33929 10.9332C5.21143 10.6061 4.93712 10.3565 4.38849 9.85741L4.02678 9.52832C2.943 8.54231 2.4011 8.0493 2.55724 7.58506C2.71337 7.12083 3.44305 7.05548 4.90241 6.92478L5.06362 6.91034C5.9553 6.83048 6.40115 6.79056 6.74078 6.53804C7.08042 6.28552 7.24707 5.87007 7.58036 5.03917L7.60784 4.97068Z" fill="#F2994A"/>
</g>
</svg>
